<mxfile host="app.diagrams.net" modified="2024-07-09T22:55:15.025Z" agent="Mozilla/5.0 (Windows NT 10.0; Win64; x64) AppleWebKit/537.36 (KHTML, like Gecko) Chrome/126.0.0.0 Safari/537.36 Edg/126.0.0.0" etag="dttyfrMFlNJUip1bAhGu" version="24.6.4" type="github">
  <diagram name="Page-1" id="8cGqvqzRF-niA31O7kiK">
    <mxGraphModel dx="2174" dy="1135" grid="0" gridSize="10" guides="1" tooltips="1" connect="1" arrows="1" fold="1" page="1" pageScale="1" pageWidth="850" pageHeight="1100" math="0" shadow="0">
      <root>
        <mxCell id="0" />
        <mxCell id="1" parent="0" />
        <mxCell id="NXqLfRhQgLnLq6g-2Fk--18" style="edgeStyle=orthogonalEdgeStyle;rounded=0;orthogonalLoop=1;jettySize=auto;html=1;exitX=0.75;exitY=1;exitDx=0;exitDy=0;entryX=0.75;entryY=0;entryDx=0;entryDy=0;" edge="1" parent="1" source="NXqLfRhQgLnLq6g-2Fk--16" target="NXqLfRhQgLnLq6g-2Fk--17">
          <mxGeometry relative="1" as="geometry" />
        </mxCell>
        <mxCell id="NXqLfRhQgLnLq6g-2Fk--16" value="Load Data&lt;div&gt;to VGA&lt;/div&gt;" style="rounded=0;whiteSpace=wrap;html=1;" vertex="1" parent="1">
          <mxGeometry x="339" y="124" width="120" height="60" as="geometry" />
        </mxCell>
        <mxCell id="NXqLfRhQgLnLq6g-2Fk--19" style="edgeStyle=orthogonalEdgeStyle;rounded=0;orthogonalLoop=1;jettySize=auto;html=1;exitX=0.25;exitY=0;exitDx=0;exitDy=0;entryX=0.25;entryY=1;entryDx=0;entryDy=0;" edge="1" parent="1" source="NXqLfRhQgLnLq6g-2Fk--17" target="NXqLfRhQgLnLq6g-2Fk--16">
          <mxGeometry relative="1" as="geometry" />
        </mxCell>
        <mxCell id="NXqLfRhQgLnLq6g-2Fk--17" value="Prepare Data&lt;div&gt;from SRAM&lt;/div&gt;" style="rounded=0;whiteSpace=wrap;html=1;" vertex="1" parent="1">
          <mxGeometry x="339" y="284" width="120" height="60" as="geometry" />
        </mxCell>
        <mxCell id="NXqLfRhQgLnLq6g-2Fk--21" value="register bit = 31" style="text;html=1;align=center;verticalAlign=middle;resizable=0;points=[];autosize=1;strokeColor=none;fillColor=none;" vertex="1" parent="1">
          <mxGeometry x="268" y="221" width="101" height="26" as="geometry" />
        </mxCell>
        <mxCell id="NXqLfRhQgLnLq6g-2Fk--22" value="register bit &amp;lt; 31" style="text;html=1;align=center;verticalAlign=middle;resizable=0;points=[];autosize=1;strokeColor=none;fillColor=none;" vertex="1" parent="1">
          <mxGeometry x="430" y="216" width="101" height="26" as="geometry" />
        </mxCell>
      </root>
    </mxGraphModel>
  </diagram>
</mxfile>
